<svg xmlns="http://www.w3.org/2000/svg" viewBox="0 0 1100 550" width="1100" height="550">
  <defs>
    <linearGradient id="bg4" x1="0%" y1="0%" x2="100%" y2="100%">
      <stop offset="0%" stop-color="#0f172a"/>
      <stop offset="100%" stop-color="#1a1040"/>
    </linearGradient>
  </defs>
  <rect width="1100" height="550" fill="url(#bg4)" rx="10"/>

  <!-- Title -->
  <text x="550" y="34" text-anchor="middle"
        font-family="system-ui,-apple-system,'Segoe UI',sans-serif"
        font-size="19" font-weight="700" fill="#e2e8f0">Sovereign Agentic OS — Persona Pack</text>
  <text x="550" y="54" text-anchor="middle"
        font-family="system-ui,-apple-system,'Segoe UI',sans-serif"
        font-size="12" fill="#64748b">14 specialist personas + shared universal mandates govern every autonomous action</text>

  <!-- ════════════════ ROW 0 ════════════════ -->

  <!-- Arbiter (34, 65) hat=#9333ea -->
  <rect x="34"  y="65" width="200" height="145" rx="8" fill="#0f172a"/>
  <rect x="34"  y="65" width="200" height="14"  rx="8" fill="#9333ea"/>
  <rect x="34"  y="71" width="200" height="8"         fill="#9333ea"/>
  <rect x="34"  y="65" width="200" height="145" rx="8" fill="none" stroke="#9333ea" stroke-width="1" opacity="0.35"/>
  <text x="46"  y="95"  font-family="system-ui,-apple-system,'Segoe UI',sans-serif" font-size="13" font-weight="700" fill="#f1f5f9">Arbiter</text>
  <text x="46"  y="110" font-family="system-ui,-apple-system,'Segoe UI',sans-serif" font-size="10" fill="#9333ea">Purple Hat — Governance</text>
  <line x1="46" y1="118" x2="222" y2="118" stroke="#1e293b" stroke-width="1"/>
  <text x="46"  y="132" font-family="system-ui,-apple-system,'Segoe UI',sans-serif" font-size="11" fill="#94a3b8">Adjudication &amp;</text>
  <text x="46"  y="146" font-family="system-ui,-apple-system,'Segoe UI',sans-serif" font-size="11" fill="#64748b">Policy enforcement</text>
  <text x="46"  y="168" font-family="system-ui,-apple-system,'Segoe UI',sans-serif" font-size="9.5" fill="#374151">ALIGN Ledger · precedent</text>
  <text x="46"  y="182" font-family="system-ui,-apple-system,'Segoe UI',sans-serif" font-size="9.5" fill="#374151">Conflict resolution · temp 0.1</text>

  <!-- Catalyst (242, 65) hat=#f97316 -->
  <rect x="242" y="65" width="200" height="145" rx="8" fill="#0f172a"/>
  <rect x="242" y="65" width="200" height="14"  rx="8" fill="#f97316"/>
  <rect x="242" y="71" width="200" height="8"         fill="#f97316"/>
  <rect x="242" y="65" width="200" height="145" rx="8" fill="none" stroke="#f97316" stroke-width="1" opacity="0.35"/>
  <text x="254" y="95"  font-family="system-ui,-apple-system,'Segoe UI',sans-serif" font-size="13" font-weight="700" fill="#f1f5f9">Catalyst</text>
  <text x="254" y="110" font-family="system-ui,-apple-system,'Segoe UI',sans-serif" font-size="10" fill="#f97316">Orange Hat — Performance</text>
  <line x1="254" y1="118" x2="430" y2="118" stroke="#1e293b" stroke-width="1"/>
  <text x="254" y="132" font-family="system-ui,-apple-system,'Segoe UI',sans-serif" font-size="11" fill="#94a3b8">Optimization &amp;</text>
  <text x="254" y="146" font-family="system-ui,-apple-system,'Segoe UI',sans-serif" font-size="11" fill="#64748b">Latency profiling</text>
  <text x="254" y="168" font-family="system-ui,-apple-system,'Segoe UI',sans-serif" font-size="9.5" fill="#374151">Latency · memory · CPU</text>
  <text x="254" y="182" font-family="system-ui,-apple-system,'Segoe UI',sans-serif" font-size="9.5" fill="#374151">Benchmarks · temp 0.1</text>

  <!-- Chronicler (450, 65) hat=#94a3b8 -->
  <rect x="450" y="65" width="200" height="145" rx="8" fill="#0f172a"/>
  <rect x="450" y="65" width="200" height="14"  rx="8" fill="#94a3b8"/>
  <rect x="450" y="71" width="200" height="8"         fill="#94a3b8"/>
  <rect x="450" y="65" width="200" height="145" rx="8" fill="none" stroke="#94a3b8" stroke-width="1" opacity="0.35"/>
  <text x="462" y="95"  font-family="system-ui,-apple-system,'Segoe UI',sans-serif" font-size="13" font-weight="700" fill="#f1f5f9">Chronicler</text>
  <text x="462" y="110" font-family="system-ui,-apple-system,'Segoe UI',sans-serif" font-size="10" fill="#94a3b8">Silver Hat — Codebase</text>
  <line x1="462" y1="118" x2="638" y2="118" stroke="#1e293b" stroke-width="1"/>
  <text x="462" y="132" font-family="system-ui,-apple-system,'Segoe UI',sans-serif" font-size="11" fill="#94a3b8">Codebase Health &amp;</text>
  <text x="462" y="146" font-family="system-ui,-apple-system,'Segoe UI',sans-serif" font-size="11" fill="#64748b">Tech debt tracking</text>
  <text x="462" y="168" font-family="system-ui,-apple-system,'Segoe UI',sans-serif" font-size="9.5" fill="#374151">Complexity · drift · churn</text>
  <text x="462" y="182" font-family="system-ui,-apple-system,'Segoe UI',sans-serif" font-size="9.5" fill="#374151">Evolution patterns · temp 0.2</text>

  <!-- Consolidator (658, 65) hat=#94a3b8 -->
  <rect x="658" y="65" width="200" height="145" rx="8" fill="#0f172a"/>
  <rect x="658" y="65" width="200" height="14"  rx="8" fill="#94a3b8"/>
  <rect x="658" y="71" width="200" height="8"         fill="#94a3b8"/>
  <rect x="658" y="65" width="200" height="145" rx="8" fill="none" stroke="#94a3b8" stroke-width="1" opacity="0.35"/>
  <text x="670" y="95"  font-family="system-ui,-apple-system,'Segoe UI',sans-serif" font-size="13" font-weight="700" fill="#f1f5f9">Consolidator</text>
  <text x="670" y="110" font-family="system-ui,-apple-system,'Segoe UI',sans-serif" font-size="10" fill="#94a3b8">Silver Hat — Synthesis</text>
  <line x1="670" y1="118" x2="846" y2="118" stroke="#1e293b" stroke-width="1"/>
  <text x="670" y="132" font-family="system-ui,-apple-system,'Segoe UI',sans-serif" font-size="11" fill="#94a3b8">Multi-agent</text>
  <text x="670" y="146" font-family="system-ui,-apple-system,'Segoe UI',sans-serif" font-size="11" fill="#64748b">round-robin synthesis</text>
  <text x="670" y="168" font-family="system-ui,-apple-system,'Segoe UI',sans-serif" font-size="9.5" fill="#374151">SUCE pattern · agreement</text>
  <text x="670" y="182" font-family="system-ui,-apple-system,'Segoe UI',sans-serif" font-size="9.5" fill="#374151">Signal extraction · temp 0.3</text>

  <!-- CoVE (866, 65) hat=#f59e0b -->
  <rect x="866" y="65" width="200" height="145" rx="8" fill="#0f172a"/>
  <rect x="866" y="65" width="200" height="14"  rx="8" fill="#f59e0b"/>
  <rect x="866" y="71" width="200" height="8"         fill="#f59e0b"/>
  <rect x="866" y="65" width="200" height="145" rx="8" fill="none" stroke="#f59e0b" stroke-width="1" opacity="0.35"/>
  <text x="878" y="95"  font-family="system-ui,-apple-system,'Segoe UI',sans-serif" font-size="13" font-weight="700" fill="#f1f5f9">CoVE</text>
  <text x="878" y="110" font-family="system-ui,-apple-system,'Segoe UI',sans-serif" font-size="10" fill="#f59e0b">Gold Hat — Final QA</text>
  <line x1="878" y1="118" x2="1054" y2="118" stroke="#1e293b" stroke-width="1"/>
  <text x="878" y="132" font-family="system-ui,-apple-system,'Segoe UI',sans-serif" font-size="11" fill="#94a3b8">Comprehensive</text>
  <text x="878" y="146" font-family="system-ui,-apple-system,'Segoe UI',sans-serif" font-size="11" fill="#64748b">validation engineer</text>
  <text x="878" y="168" font-family="system-ui,-apple-system,'Segoe UI',sans-serif" font-size="9.5" fill="#374151">12-dimensional audit</text>
  <text x="878" y="182" font-family="system-ui,-apple-system,'Segoe UI',sans-serif" font-size="9.5" fill="#374151">Zero-tolerance · temp 0.0</text>

  <!-- ════════════════ ROW 1 ════════════════ -->

  <!-- Herald (34, 225) hat=#c8d5e2 -->
  <rect x="34"  y="225" width="200" height="145" rx="8" fill="#0f172a"/>
  <rect x="34"  y="225" width="200" height="14"  rx="8" fill="#c8d5e2"/>
  <rect x="34"  y="231" width="200" height="8"         fill="#c8d5e2"/>
  <rect x="34"  y="225" width="200" height="145" rx="8" fill="none" stroke="#c8d5e2" stroke-width="1" opacity="0.35"/>
  <text x="46"  y="255" font-family="system-ui,-apple-system,'Segoe UI',sans-serif" font-size="13" font-weight="700" fill="#f1f5f9">Herald</text>
  <text x="46"  y="270" font-family="system-ui,-apple-system,'Segoe UI',sans-serif" font-size="10" fill="#c8d5e2">White Hat — Docs</text>
  <line x1="46" y1="278" x2="222" y2="278" stroke="#1e293b" stroke-width="1"/>
  <text x="46"  y="292" font-family="system-ui,-apple-system,'Segoe UI',sans-serif" font-size="11" fill="#94a3b8">Documentation</text>
  <text x="46"  y="306" font-family="system-ui,-apple-system,'Segoe UI',sans-serif" font-size="11" fill="#64748b">integrity &amp; accuracy</text>
  <text x="46"  y="328" font-family="system-ui,-apple-system,'Segoe UI',sans-serif" font-size="9.5" fill="#374151">Doc-code sync · readability</text>
  <text x="46"  y="342" font-family="system-ui,-apple-system,'Segoe UI',sans-serif" font-size="9.5" fill="#374151">Knowledge translation · temp 0.3</text>

  <!-- Oracle (242, 225) hat=#eab308 -->
  <rect x="242" y="225" width="200" height="145" rx="8" fill="#0f172a"/>
  <rect x="242" y="225" width="200" height="14"  rx="8" fill="#eab308"/>
  <rect x="242" y="231" width="200" height="8"         fill="#eab308"/>
  <rect x="242" y="225" width="200" height="145" rx="8" fill="none" stroke="#eab308" stroke-width="1" opacity="0.35"/>
  <text x="254" y="255" font-family="system-ui,-apple-system,'Segoe UI',sans-serif" font-size="13" font-weight="700" fill="#f1f5f9">Oracle</text>
  <text x="254" y="270" font-family="system-ui,-apple-system,'Segoe UI',sans-serif" font-size="10" fill="#eab308">Yellow Hat — Prediction</text>
  <line x1="254" y1="278" x2="430" y2="278" stroke="#1e293b" stroke-width="1"/>
  <text x="254" y="292" font-family="system-ui,-apple-system,'Segoe UI',sans-serif" font-size="11" fill="#94a3b8">Predictive modeling &amp;</text>
  <text x="254" y="306" font-family="system-ui,-apple-system,'Segoe UI',sans-serif" font-size="11" fill="#64748b">impact analysis</text>
  <text x="254" y="328" font-family="system-ui,-apple-system,'Segoe UI',sans-serif" font-size="9.5" fill="#374151">Causal chains · second-order</text>
  <text x="254" y="342" font-family="system-ui,-apple-system,'Segoe UI',sans-serif" font-size="9.5" fill="#374151">Decision trees · temp 0.3</text>

  <!-- Palette (450, 225) hat=#22c55e -->
  <rect x="450" y="225" width="200" height="145" rx="8" fill="#0f172a"/>
  <rect x="450" y="225" width="200" height="14"  rx="8" fill="#22c55e"/>
  <rect x="450" y="231" width="200" height="8"         fill="#22c55e"/>
  <rect x="450" y="225" width="200" height="145" rx="8" fill="none" stroke="#22c55e" stroke-width="1" opacity="0.35"/>
  <text x="462" y="255" font-family="system-ui,-apple-system,'Segoe UI',sans-serif" font-size="13" font-weight="700" fill="#f1f5f9">Palette</text>
  <text x="462" y="270" font-family="system-ui,-apple-system,'Segoe UI',sans-serif" font-size="10" fill="#22c55e">Green Hat — UX</text>
  <line x1="462" y1="278" x2="638" y2="278" stroke="#1e293b" stroke-width="1"/>
  <text x="462" y="292" font-family="system-ui,-apple-system,'Segoe UI',sans-serif" font-size="11" fill="#94a3b8">UX design &amp;</text>
  <text x="462" y="306" font-family="system-ui,-apple-system,'Segoe UI',sans-serif" font-size="11" fill="#64748b">accessibility audit</text>
  <text x="462" y="328" font-family="system-ui,-apple-system,'Segoe UI',sans-serif" font-size="9.5" fill="#374151">WCAG 2.2 AA · APCA</text>
  <text x="462" y="342" font-family="system-ui,-apple-system,'Segoe UI',sans-serif" font-size="9.5" fill="#374151">Cognitive load · temp 0.4</text>

  <!-- Scout (658, 225) hat=#c0cfe0 -->
  <rect x="658" y="225" width="200" height="145" rx="8" fill="#0f172a"/>
  <rect x="658" y="225" width="200" height="14"  rx="8" fill="#c0cfe0"/>
  <rect x="658" y="231" width="200" height="8"         fill="#c0cfe0"/>
  <rect x="658" y="225" width="200" height="145" rx="8" fill="none" stroke="#c0cfe0" stroke-width="1" opacity="0.35"/>
  <text x="670" y="255" font-family="system-ui,-apple-system,'Segoe UI',sans-serif" font-size="13" font-weight="700" fill="#f1f5f9">Scout</text>
  <text x="670" y="270" font-family="system-ui,-apple-system,'Segoe UI',sans-serif" font-size="10" fill="#c0cfe0">White Hat — Research</text>
  <line x1="670" y1="278" x2="846" y2="278" stroke="#1e293b" stroke-width="1"/>
  <text x="670" y="292" font-family="system-ui,-apple-system,'Segoe UI',sans-serif" font-size="11" fill="#94a3b8">External intelligence &amp;</text>
  <text x="670" y="306" font-family="system-ui,-apple-system,'Segoe UI',sans-serif" font-size="11" fill="#64748b">technology research</text>
  <text x="670" y="328" font-family="system-ui,-apple-system,'Segoe UI',sans-serif" font-size="9.5" fill="#374151">Source credibility rating</text>
  <text x="670" y="342" font-family="system-ui,-apple-system,'Segoe UI',sans-serif" font-size="9.5" fill="#374151">Unknown unknowns · temp 0.5</text>

  <!-- Scribe (866, 225) hat=#94a3b8 -->
  <rect x="866" y="225" width="200" height="145" rx="8" fill="#0f172a"/>
  <rect x="866" y="225" width="200" height="14"  rx="8" fill="#94a3b8"/>
  <rect x="866" y="231" width="200" height="8"         fill="#94a3b8"/>
  <rect x="866" y="225" width="200" height="145" rx="8" fill="none" stroke="#94a3b8" stroke-width="1" opacity="0.35"/>
  <text x="878" y="255" font-family="system-ui,-apple-system,'Segoe UI',sans-serif" font-size="13" font-weight="700" fill="#f1f5f9">Scribe</text>
  <text x="878" y="270" font-family="system-ui,-apple-system,'Segoe UI',sans-serif" font-size="10" fill="#94a3b8">Silver Hat — Memory</text>
  <line x1="878" y1="278" x2="1054" y2="278" stroke="#1e293b" stroke-width="1"/>
  <text x="878" y="292" font-family="system-ui,-apple-system,'Segoe UI',sans-serif" font-size="11" fill="#94a3b8">Memory, token &amp;</text>
  <text x="878" y="306" font-family="system-ui,-apple-system,'Segoe UI',sans-serif" font-size="11" fill="#64748b">gas metering</text>
  <text x="878" y="328" font-family="system-ui,-apple-system,'Segoe UI',sans-serif" font-size="9.5" fill="#374151">Audit trail · atomic ops</text>
  <text x="878" y="342" font-family="system-ui,-apple-system,'Segoe UI',sans-serif" font-size="9.5" fill="#374151">ALIGN Ledger · temp 0.1</text>

  <!-- ════════════════ ROW 2 ════════════════ -->

  <!-- Sentinel (34, 385) hat=#64748b -->
  <rect x="34"  y="385" width="200" height="145" rx="8" fill="#0f172a"/>
  <rect x="34"  y="385" width="200" height="14"  rx="8" fill="#64748b"/>
  <rect x="34"  y="391" width="200" height="8"         fill="#64748b"/>
  <rect x="34"  y="385" width="200" height="145" rx="8" fill="none" stroke="#64748b" stroke-width="1" opacity="0.35"/>
  <text x="46"  y="415" font-family="system-ui,-apple-system,'Segoe UI',sans-serif" font-size="13" font-weight="700" fill="#f1f5f9">Sentinel</text>
  <text x="46"  y="430" font-family="system-ui,-apple-system,'Segoe UI',sans-serif" font-size="10" fill="#94a3b8">Black Hat — Security</text>
  <line x1="46" y1="438" x2="222" y2="438" stroke="#1e293b" stroke-width="1"/>
  <text x="46"  y="452" font-family="system-ui,-apple-system,'Segoe UI',sans-serif" font-size="11" fill="#94a3b8">Security &amp;</text>
  <text x="46"  y="466" font-family="system-ui,-apple-system,'Segoe UI',sans-serif" font-size="11" fill="#64748b">compliance defense</text>
  <text x="46"  y="488" font-family="system-ui,-apple-system,'Segoe UI',sans-serif" font-size="9.5" fill="#374151">Zero-trust · OWASP LLM</text>
  <text x="46"  y="502" font-family="system-ui,-apple-system,'Segoe UI',sans-serif" font-size="9.5" fill="#374151">Threat modeling · temp 0.0</text>

  <!-- Steward (242, 385) hat=#38bdf8 -->
  <rect x="242" y="385" width="200" height="145" rx="8" fill="#0f172a"/>
  <rect x="242" y="385" width="200" height="14"  rx="8" fill="#38bdf8"/>
  <rect x="242" y="391" width="200" height="8"         fill="#38bdf8"/>
  <rect x="242" y="385" width="200" height="145" rx="8" fill="none" stroke="#38bdf8" stroke-width="1" opacity="0.35"/>
  <text x="254" y="415" font-family="system-ui,-apple-system,'Segoe UI',sans-serif" font-size="13" font-weight="700" fill="#f1f5f9">Steward</text>
  <text x="254" y="430" font-family="system-ui,-apple-system,'Segoe UI',sans-serif" font-size="10" fill="#38bdf8">Azure Hat — MCP</text>
  <line x1="254" y1="438" x2="430" y2="438" stroke="#1e293b" stroke-width="1"/>
  <text x="254" y="452" font-family="system-ui,-apple-system,'Segoe UI',sans-serif" font-size="11" fill="#94a3b8">MCP workflow &amp;</text>
  <text x="254" y="466" font-family="system-ui,-apple-system,'Segoe UI',sans-serif" font-size="11" fill="#64748b">tool safety</text>
  <text x="254" y="488" font-family="system-ui,-apple-system,'Segoe UI',sans-serif" font-size="9.5" fill="#374151">Tool call governance</text>
  <text x="254" y="502" font-family="system-ui,-apple-system,'Segoe UI',sans-serif" font-size="9.5" fill="#374151">Auth · timeouts · temp 0.1</text>

  <!-- Strategist (450, 385) hat=#3b82f6 -->
  <rect x="450" y="385" width="200" height="145" rx="8" fill="#0f172a"/>
  <rect x="450" y="385" width="200" height="14"  rx="8" fill="#3b82f6"/>
  <rect x="450" y="391" width="200" height="8"         fill="#3b82f6"/>
  <rect x="450" y="385" width="200" height="145" rx="8" fill="none" stroke="#3b82f6" stroke-width="1" opacity="0.35"/>
  <text x="462" y="415" font-family="system-ui,-apple-system,'Segoe UI',sans-serif" font-size="13" font-weight="700" fill="#f1f5f9">Strategist</text>
  <text x="462" y="430" font-family="system-ui,-apple-system,'Segoe UI',sans-serif" font-size="10" fill="#3b82f6">Blue Hat — Planning</text>
  <line x1="462" y1="438" x2="638" y2="438" stroke="#1e293b" stroke-width="1"/>
  <text x="462" y="452" font-family="system-ui,-apple-system,'Segoe UI',sans-serif" font-size="11" fill="#94a3b8">Roadmap &amp;</text>
  <text x="462" y="466" font-family="system-ui,-apple-system,'Segoe UI',sans-serif" font-size="11" fill="#64748b">priority analysis</text>
  <text x="462" y="488" font-family="system-ui,-apple-system,'Segoe UI',sans-serif" font-size="9.5" fill="#374151">ROI · OKR · MoSCoW</text>
  <text x="462" y="502" font-family="system-ui,-apple-system,'Segoe UI',sans-serif" font-size="9.5" fill="#374151">Sprint planning · temp 0.4</text>

  <!-- Weaver (658, 385) hat=#06b6d4 -->
  <rect x="658" y="385" width="200" height="145" rx="8" fill="#0f172a"/>
  <rect x="658" y="385" width="200" height="14"  rx="8" fill="#06b6d4"/>
  <rect x="658" y="391" width="200" height="8"         fill="#06b6d4"/>
  <rect x="658" y="385" width="200" height="145" rx="8" fill="none" stroke="#06b6d4" stroke-width="1" opacity="0.35"/>
  <text x="670" y="415" font-family="system-ui,-apple-system,'Segoe UI',sans-serif" font-size="13" font-weight="700" fill="#f1f5f9">Weaver</text>
  <text x="670" y="430" font-family="system-ui,-apple-system,'Segoe UI',sans-serif" font-size="10" fill="#06b6d4">Cyan Hat — Meta-AI</text>
  <line x1="670" y1="438" x2="846" y2="438" stroke="#1e293b" stroke-width="1"/>
  <text x="670" y="452" font-family="system-ui,-apple-system,'Segoe UI',sans-serif" font-size="11" fill="#94a3b8">Prompt engineering &amp;</text>
  <text x="670" y="466" font-family="system-ui,-apple-system,'Segoe UI',sans-serif" font-size="11" fill="#64748b">HLF self-improvement</text>
  <text x="670" y="488" font-family="system-ui,-apple-system,'Segoe UI',sans-serif" font-size="9.5" fill="#374151">Recursive meta-AI · HEP</text>
  <text x="670" y="502" font-family="system-ui,-apple-system,'Segoe UI',sans-serif" font-size="9.5" fill="#374151">Grammar evolution · temp 0.5</text>

  <!-- Shared Mandates (866, 385) hat=#fbbf24 -->
  <rect x="866" y="385" width="200" height="145" rx="8" fill="#1c1400"/>
  <rect x="866" y="385" width="200" height="14"  rx="8" fill="#fbbf24"/>
  <rect x="866" y="391" width="200" height="8"         fill="#fbbf24"/>
  <rect x="866" y="385" width="200" height="145" rx="8" fill="none" stroke="#fbbf24" stroke-width="1.5" opacity="0.6"/>
  <text x="878" y="415" font-family="system-ui,-apple-system,'Segoe UI',sans-serif" font-size="13" font-weight="700" fill="#f1f5f9">Shared Mandates</text>
  <text x="878" y="430" font-family="system-ui,-apple-system,'Segoe UI',sans-serif" font-size="10" fill="#fbbf24">Supreme Authority</text>
  <line x1="878" y1="438" x2="1054" y2="438" stroke="#2a1f00" stroke-width="1"/>
  <text x="878" y="452" font-family="system-ui,-apple-system,'Segoe UI',sans-serif" font-size="11" fill="#fde68a">9 universal rules</text>
  <text x="878" y="466" font-family="system-ui,-apple-system,'Segoe UI',sans-serif" font-size="11" fill="#d97706">govern ALL personas</text>
  <text x="878" y="488" font-family="system-ui,-apple-system,'Segoe UI',sans-serif" font-size="9.5" fill="#92400e">Anti-reductionism mandate</text>
  <text x="878" y="502" font-family="system-ui,-apple-system,'Segoe UI',sans-serif" font-size="9.5" fill="#92400e">Evidence · transparency</text>
</svg>
