<svg xmlns="http://www.w3.org/2000/svg" viewBox="0 0 900 390" width="900" height="390">
  <defs>
    <linearGradient id="bg3" x1="0%" y1="0%" x2="100%" y2="100%">
      <stop offset="0%" stop-color="#0f172a"/>
      <stop offset="100%" stop-color="#1e1b4b"/>
    </linearGradient>
  </defs>

  <!-- Background -->
  <rect width="900" height="390" fill="url(#bg3)" rx="10"/>

  <!-- Title -->
  <text x="450" y="36"
        text-anchor="middle"
        font-family="system-ui,-apple-system,'Segoe UI',sans-serif"
        font-size="20" font-weight="700" fill="#e2e8f0">Repository Structure</text>
  <text x="450" y="56"
        text-anchor="middle"
        font-family="system-ui,-apple-system,'Segoe UI',sans-serif"
        font-size="12" fill="#64748b">Every directory has a purpose — Jules fills them over time</text>

  <!-- ═══════════ ROW 0 ═══════════ -->

  <!-- agents/ (x=35) -->
  <rect x="35"  y="68" width="200" height="95" rx="8" fill="#0f172a"/>
  <rect x="35"  y="68" width="6"   height="95" rx="3" fill="#3b82f6"/>
  <circle cx="70" cy="115" r="18" fill="#1e3a5f" stroke="#3b82f6" stroke-width="1.5"/>
  <text x="70" cy="115" y="120" text-anchor="middle"
        font-family="system-ui,sans-serif" font-size="14" font-weight="800" fill="#3b82f6">A</text>
  <text x="97" y="103"
        font-family="system-ui,sans-serif" font-size="13" font-weight="700" fill="#f1f5f9">agents/</text>
  <text x="97" y="119"
        font-family="system-ui,sans-serif" font-size="11" fill="#94a3b8">AI Agent Classes</text>
  <text x="97" y="135"
        font-family="system-ui,sans-serif" font-size="10" fill="#475569">Reusable agent modules</text>

  <!-- config/personas/ (x=245) -->
  <rect x="245" y="68" width="200" height="95" rx="8" fill="#0f172a"/>
  <rect x="245" y="68" width="6"   height="95" rx="3" fill="#9333ea"/>
  <circle cx="280" cy="115" r="18" fill="#3b0764" stroke="#9333ea" stroke-width="1.5"/>
  <text x="280" y="120" text-anchor="middle"
        font-family="system-ui,sans-serif" font-size="14" font-weight="800" fill="#9333ea">P</text>
  <text x="307" y="103"
        font-family="system-ui,sans-serif" font-size="13" font-weight="700" fill="#f1f5f9">config/personas/</text>
  <text x="307" y="119"
        font-family="system-ui,sans-serif" font-size="11" fill="#94a3b8">Sovereign OS Personas</text>
  <text x="307" y="135"
        font-family="system-ui,sans-serif" font-size="10" fill="#475569">14 personas + mandates</text>

  <!-- docs/ (x=455) -->
  <rect x="455" y="68" width="200" height="95" rx="8" fill="#0f172a"/>
  <rect x="455" y="68" width="6"   height="95" rx="3" fill="#0891b2"/>
  <circle cx="490" cy="115" r="18" fill="#0c2a38" stroke="#0891b2" stroke-width="1.5"/>
  <text x="490" y="120" text-anchor="middle"
        font-family="system-ui,sans-serif" font-size="14" font-weight="800" fill="#0891b2">D</text>
  <text x="517" y="103"
        font-family="system-ui,sans-serif" font-size="13" font-weight="700" fill="#f1f5f9">docs/</text>
  <text x="517" y="119"
        font-family="system-ui,sans-serif" font-size="11" fill="#94a3b8">GitHub Pages Site</text>
  <text x="517" y="135"
        font-family="system-ui,sans-serif" font-size="10" fill="#475569">Public sprint preview</text>

  <!-- examples/ (x=665) -->
  <rect x="665" y="68" width="200" height="95" rx="8" fill="#0f172a"/>
  <rect x="665" y="68" width="6"   height="95" rx="3" fill="#22c55e"/>
  <circle cx="700" cy="115" r="18" fill="#052e16" stroke="#22c55e" stroke-width="1.5"/>
  <text x="700" y="120" text-anchor="middle"
        font-family="system-ui,sans-serif" font-size="14" font-weight="800" fill="#22c55e">E</text>
  <text x="727" y="103"
        font-family="system-ui,sans-serif" font-size="13" font-weight="700" fill="#f1f5f9">examples/</text>
  <text x="727" y="119"
        font-family="system-ui,sans-serif" font-size="11" fill="#94a3b8">Code Demonstrators</text>
  <text x="727" y="135"
        font-family="system-ui,sans-serif" font-size="10" fill="#475569">hello_world &amp; more</text>

  <!-- ═══════════ ROW 1 ═══════════ -->

  <!-- governance/ (x=35) -->
  <rect x="35"  y="175" width="200" height="95" rx="8" fill="#0f172a"/>
  <rect x="35"  y="175" width="6"   height="95" rx="3" fill="#f59e0b"/>
  <circle cx="70" cy="222" r="18" fill="#451a03" stroke="#f59e0b" stroke-width="1.5"/>
  <text x="70" y="227" text-anchor="middle"
        font-family="system-ui,sans-serif" font-size="14" font-weight="800" fill="#f59e0b">G</text>
  <text x="97" y="210"
        font-family="system-ui,sans-serif" font-size="13" font-weight="700" fill="#f1f5f9">governance/</text>
  <text x="97" y="226"
        font-family="system-ui,sans-serif" font-size="11" fill="#94a3b8">PR Review Protocol</text>
  <text x="97" y="242"
        font-family="system-ui,sans-serif" font-size="10" fill="#475569">Eleven Hats template</text>

  <!-- logs/ (x=245) -->
  <rect x="245" y="175" width="200" height="95" rx="8" fill="#0f172a"/>
  <rect x="245" y="175" width="6"   height="95" rx="3" fill="#64748b"/>
  <circle cx="280" cy="222" r="18" fill="#0f172a" stroke="#64748b" stroke-width="1.5"/>
  <text x="280" y="227" text-anchor="middle"
        font-family="system-ui,sans-serif" font-size="14" font-weight="800" fill="#64748b">L</text>
  <text x="307" y="210"
        font-family="system-ui,sans-serif" font-size="13" font-weight="700" fill="#f1f5f9">logs/</text>
  <text x="307" y="226"
        font-family="system-ui,sans-serif" font-size="11" fill="#94a3b8">Audit &amp; Ethics Logs</text>
  <text x="307" y="242"
        font-family="system-ui,sans-serif" font-size="10" fill="#475569">Auto-written by Jules</text>

  <!-- tests/ (x=455) -->
  <rect x="455" y="175" width="200" height="95" rx="8" fill="#0f172a"/>
  <rect x="455" y="175" width="6"   height="95" rx="3" fill="#06b6d4"/>
  <circle cx="490" cy="222" r="18" fill="#082f49" stroke="#06b6d4" stroke-width="1.5"/>
  <text x="490" y="227" text-anchor="middle"
        font-family="system-ui,sans-serif" font-size="14" font-weight="800" fill="#06b6d4">T</text>
  <text x="517" y="210"
        font-family="system-ui,sans-serif" font-size="13" font-weight="700" fill="#f1f5f9">tests/</text>
  <text x="517" y="226"
        font-family="system-ui,sans-serif" font-size="11" fill="#94a3b8">Test Scaffolding</text>
  <text x="517" y="242"
        font-family="system-ui,sans-serif" font-size="10" fill="#475569">Jules adds tests over time</text>

  <!-- tools/ (x=665) -->
  <rect x="665" y="175" width="200" height="95" rx="8" fill="#0f172a"/>
  <rect x="665" y="175" width="6"   height="95" rx="3" fill="#f97316"/>
  <circle cx="700" cy="222" r="18" fill="#431407" stroke="#f97316" stroke-width="1.5"/>
  <text x="700" y="227" text-anchor="middle"
        font-family="system-ui,sans-serif" font-size="14" font-weight="800" fill="#f97316">T</text>
  <text x="727" y="210"
        font-family="system-ui,sans-serif" font-size="13" font-weight="700" fill="#f1f5f9">tools/</text>
  <text x="727" y="226"
        font-family="system-ui,sans-serif" font-size="11" fill="#94a3b8">Experimental Utils</text>
  <text x="727" y="242"
        font-family="system-ui,sans-serif" font-size="10" fill="#475569">Scripts, notebooks, bins</text>

  <!-- ═══════════ ROW 2 – config files ═══════════ -->

  <!-- jules_config.yaml (x=35) -->
  <rect x="35"  y="282" width="200" height="95" rx="8" fill="#0f172a"/>
  <rect x="35"  y="282" width="6"   height="95" rx="3" fill="#818cf8"/>
  <circle cx="70" cy="329" r="18" fill="#1e1b4b" stroke="#818cf8" stroke-width="1.5"/>
  <text x="70" y="334" text-anchor="middle"
        font-family="system-ui,sans-serif" font-size="13" font-weight="800" fill="#818cf8">&#x2699;</text>
  <text x="97" y="317"
        font-family="system-ui,sans-serif" font-size="12" font-weight="700" fill="#f1f5f9">jules_config.yaml</text>
  <text x="97" y="333"
        font-family="system-ui,sans-serif" font-size="11" fill="#94a3b8">Runtime Settings</text>
  <text x="97" y="349"
        font-family="system-ui,sans-serif" font-size="10" fill="#475569">Poll, pages, batch config</text>

  <!-- jules_policy.yaml (x=245) -->
  <rect x="245" y="282" width="200" height="95" rx="8" fill="#0f172a"/>
  <rect x="245" y="282" width="6"   height="95" rx="3" fill="#ef4444"/>
  <circle cx="280" cy="329" r="18" fill="#450a0a" stroke="#ef4444" stroke-width="1.5"/>
  <text x="280" y="334" text-anchor="middle"
        font-family="system-ui,sans-serif" font-size="13" font-weight="800" fill="#ef4444">&#x26D4;</text>
  <text x="307" y="317"
        font-family="system-ui,sans-serif" font-size="12" font-weight="700" fill="#f1f5f9">jules_policy.yaml</text>
  <text x="307" y="333"
        font-family="system-ui,sans-serif" font-size="11" fill="#94a3b8">Safety Rules</text>
  <text x="307" y="349"
        font-family="system-ui,sans-serif" font-size="10" fill="#475569">6 hard constraints</text>

  <!-- README.md (x=455) -->
  <rect x="455" y="282" width="200" height="95" rx="8" fill="#0f172a"/>
  <rect x="455" y="282" width="6"   height="95" rx="3" fill="#a78bfa"/>
  <circle cx="490" cy="329" r="18" fill="#2e1065" stroke="#a78bfa" stroke-width="1.5"/>
  <text x="490" y="334" text-anchor="middle"
        font-family="system-ui,sans-serif" font-size="13" font-weight="800" fill="#a78bfa">R</text>
  <text x="517" y="317"
        font-family="system-ui,sans-serif" font-size="12" font-weight="700" fill="#f1f5f9">README.md</text>
  <text x="517" y="333"
        font-family="system-ui,sans-serif" font-size="11" fill="#94a3b8">Project Overview</text>
  <text x="517" y="349"
        font-family="system-ui,sans-serif" font-size="10" fill="#475569">Updated each sprint</text>

  <!-- LICENSE (x=665) -->
  <rect x="665" y="282" width="200" height="95" rx="8" fill="#0f172a"/>
  <rect x="665" y="282" width="6"   height="95" rx="3" fill="#94a3b8"/>
  <circle cx="700" cy="329" r="18" fill="#1e293b" stroke="#94a3b8" stroke-width="1.5"/>
  <text x="700" y="334" text-anchor="middle"
        font-family="system-ui,sans-serif" font-size="13" font-weight="800" fill="#94a3b8">&#xa9;</text>
  <text x="727" y="317"
        font-family="system-ui,sans-serif" font-size="12" font-weight="700" fill="#f1f5f9">LICENSE</text>
  <text x="727" y="333"
        font-family="system-ui,sans-serif" font-size="11" fill="#94a3b8">Open Source</text>
  <text x="727" y="349"
        font-family="system-ui,sans-serif" font-size="10" fill="#475569">MIT license terms</text>
</svg>
